<?xml version="1.0" encoding="UTF-8"?><svg xmlns="http://www.w3.org/2000/svg" xmlns:xlink="http://www.w3.org/1999/xlink" fill-opacity="1" color-rendering="auto" color-interpolation="auto" text-rendering="auto" stroke="black" stroke-linecap="square" width="529" stroke-miterlimit="10" shape-rendering="auto" stroke-opacity="1" fill="black" stroke-dasharray="none" font-weight="normal" stroke-width="1" height="1438" font-family="'Dialog'" font-style="normal" stroke-linejoin="miter" font-size="12px" stroke-dashoffset="0" image-rendering="auto">
  <!--Generated by ySVG 2.5-->
  <defs id="genericDefs"/>
  <g>
    <defs id="defs1">
      <clipPath clipPathUnits="userSpaceOnUse" id="clipPath1">
        <path d="M0 0 L529 0 L529 1438 L0 1438 L0 0 Z"/>
      </clipPath>
      <clipPath clipPathUnits="userSpaceOnUse" id="clipPath2">
        <path d="M231 -14 L760 -14 L760 1424 L231 1424 L231 -14 Z"/>
      </clipPath>
    </defs>
    <g fill="white" text-rendering="geometricPrecision" shape-rendering="geometricPrecision" transform="translate(-231,14)" stroke="white">
      <rect x="231" width="529" height="1438" y="-14" clip-path="url(#clipPath2)" stroke="none"/>
    </g>
    <g fill="rgb(204,255,255)" text-rendering="geometricPrecision" shape-rendering="geometricPrecision" transform="matrix(1,0,0,1,-231,14)" stroke="rgb(204,255,255)">
      <rect x="246" width="203" height="53" y="84" clip-path="url(#clipPath2)" stroke="none"/>
    </g>
    <g text-rendering="geometricPrecision" stroke-miterlimit="1.45" shape-rendering="geometricPrecision" transform="matrix(1,0,0,1,-231,14)" stroke-linecap="butt">
      <rect fill="none" x="246" width="203" height="53" y="84" clip-path="url(#clipPath2)"/>
      <text x="273.0479" xml:space="preserve" y="107.6699" clip-path="url(#clipPath2)" font-family="sans-serif" stroke="none">Cria repositório (remoto)</text>
      <text x="316.2607" xml:space="preserve" y="121.6387" clip-path="url(#clipPath2)" font-family="sans-serif" stroke="none"> no gitHub</text>
    </g>
    <g fill="rgb(204,255,255)" text-rendering="geometricPrecision" shape-rendering="geometricPrecision" transform="matrix(1,0,0,1,-231,14)" stroke="rgb(204,255,255)">
      <rect x="246" width="203" height="53" y="167" clip-path="url(#clipPath2)" stroke="none"/>
    </g>
    <g text-rendering="geometricPrecision" stroke-miterlimit="1.45" shape-rendering="geometricPrecision" transform="matrix(1,0,0,1,-231,14)" stroke-linecap="butt">
      <rect fill="none" x="246" width="203" height="53" y="167" clip-path="url(#clipPath2)"/>
      <text x="270.8154" xml:space="preserve" y="190.6699" clip-path="url(#clipPath2)" font-family="sans-serif" stroke="none">Clona repositório remoto </text>
      <text x="285.8301" xml:space="preserve" y="204.6387" clip-path="url(#clipPath2)" font-family="sans-serif" stroke="none">no computador local</text>
    </g>
    <g fill="rgb(204,255,255)" text-rendering="geometricPrecision" shape-rendering="geometricPrecision" transform="matrix(1,0,0,1,-231,14)" stroke="rgb(204,255,255)">
      <rect x="246" width="203" height="53" y="250" clip-path="url(#clipPath2)" stroke="none"/>
    </g>
    <g text-rendering="geometricPrecision" stroke-miterlimit="1.45" shape-rendering="geometricPrecision" transform="matrix(1,0,0,1,-231,14)" stroke-linecap="butt">
      <rect fill="none" x="246" width="203" height="53" y="250" clip-path="url(#clipPath2)"/>
      <text x="260.5762" xml:space="preserve" y="266.6855" clip-path="url(#clipPath2)" font-family="sans-serif" stroke="none">Cria novas pastas e arquvos,</text>
      <text x="256.2812" xml:space="preserve" y="280.6543" clip-path="url(#clipPath2)" font-family="sans-serif" stroke="none">edita, modifica, compila, testa</text>
      <text x="287.2861" xml:space="preserve" y="294.623" clip-path="url(#clipPath2)" font-family="sans-serif" stroke="none">no computator local</text>
    </g>
    <g fill="rgb(204,255,255)" text-rendering="geometricPrecision" shape-rendering="geometricPrecision" transform="matrix(1,0,0,1,-231,14)" stroke="rgb(204,255,255)">
      <rect x="246" width="203" height="53" y="333" clip-path="url(#clipPath2)" stroke="none"/>
    </g>
    <g text-rendering="geometricPrecision" stroke-miterlimit="1.45" shape-rendering="geometricPrecision" transform="matrix(1,0,0,1,-231,14)" stroke-linecap="butt">
      <rect fill="none" x="246" width="203" height="53" y="333" clip-path="url(#clipPath2)"/>
      <text x="265.6328" xml:space="preserve" y="363.6543" clip-path="url(#clipPath2)" font-family="sans-serif" stroke="none">Atualiza repositório remoto</text>
    </g>
    <g fill="rgb(255,255,153)" text-rendering="geometricPrecision" shape-rendering="geometricPrecision" transform="matrix(1,0,0,1,-231,14)" stroke="rgb(255,255,153)">
      <rect x="542" width="203" height="53" y="84" clip-path="url(#clipPath2)" stroke="none"/>
    </g>
    <g text-rendering="geometricPrecision" stroke-miterlimit="1.45" shape-rendering="geometricPrecision" transform="matrix(1,0,0,1,-231,14)" stroke-linecap="butt">
      <rect fill="none" x="542" width="203" height="53" y="84" clip-path="url(#clipPath2)"/>
      <text x="583.5967" xml:space="preserve" y="107.6699" clip-path="url(#clipPath2)" font-family="sans-serif" stroke="none">no site github.com, </text>
      <text x="587.5518" xml:space="preserve" y="121.6387" clip-path="url(#clipPath2)" font-family="sans-serif" stroke="none">usando navegador</text>
    </g>
    <g fill="rgb(255,255,153)" text-rendering="geometricPrecision" shape-rendering="geometricPrecision" transform="matrix(1,0,0,1,-231,14)" stroke="rgb(255,255,153)">
      <rect x="542" width="203" height="53" y="167" clip-path="url(#clipPath2)" stroke="none"/>
    </g>
    <g text-rendering="geometricPrecision" stroke-miterlimit="1.45" shape-rendering="geometricPrecision" transform="matrix(1,0,0,1,-231,14)" stroke-linecap="butt">
      <rect fill="none" x="542" width="203" height="53" y="167" clip-path="url(#clipPath2)"/>
      <text x="593.8389" xml:space="preserve" y="197.6543" clip-path="url(#clipPath2)" font-family="sans-serif" stroke="none">usando git clone</text>
    </g>
    <g fill="rgb(255,255,153)" text-rendering="geometricPrecision" shape-rendering="geometricPrecision" transform="matrix(1,0,0,1,-231,14)" stroke="rgb(255,255,153)">
      <rect x="542" width="203" height="53" y="333" clip-path="url(#clipPath2)" stroke="none"/>
    </g>
    <g text-rendering="geometricPrecision" stroke-miterlimit="1.45" shape-rendering="geometricPrecision" transform="matrix(1,0,0,1,-231,14)" stroke-linecap="butt">
      <rect fill="none" x="542" width="203" height="53" y="333" clip-path="url(#clipPath2)"/>
      <text x="596.7686" xml:space="preserve" y="349.6855" clip-path="url(#clipPath2)" font-family="sans-serif" stroke="none">usando git add,</text>
      <text x="605.4873" xml:space="preserve" y="363.6543" clip-path="url(#clipPath2)" font-family="sans-serif" stroke="none">git commit e</text>
      <text x="617.3174" xml:space="preserve" y="377.623" clip-path="url(#clipPath2)" font-family="sans-serif" stroke="none">git push.</text>
    </g>
    <g fill="rgb(255,204,0)" text-rendering="geometricPrecision" shape-rendering="geometricPrecision" transform="matrix(1,0,0,1,-231,14)" stroke="rgb(255,204,0)">
      <rect x="332.5" width="311" height="53" y="1" clip-path="url(#clipPath2)" stroke="none"/>
      <rect x="332.5" y="1" clip-path="url(#clipPath2)" fill="yellow" width="1" height="53" stroke="none"/>
      <rect x="333.5" y="1" clip-path="url(#clipPath2)" fill="yellow" width="309" height="1" stroke="none"/>
      <rect x="333.5" y="53" clip-path="url(#clipPath2)" fill="rgb(178,142,0)" width="310" height="1" stroke="none"/>
      <rect x="642.5" y="1" clip-path="url(#clipPath2)" fill="rgb(178,142,0)" width="1" height="52" stroke="none"/>
    </g>
    <g font-size="16px" stroke-linecap="butt" transform="matrix(1,0,0,1,-231,14)" text-rendering="geometricPrecision" font-family="sans-serif" shape-rendering="geometricPrecision" stroke-miterlimit="1.45">
      <text x="437.7305" xml:space="preserve" y="33.0391" clip-path="url(#clipPath2)" stroke="none">Criar projeto</text>
    </g>
    <g fill="rgb(204,255,255)" text-rendering="geometricPrecision" shape-rendering="geometricPrecision" transform="matrix(1,0,0,1,-231,14)" stroke="rgb(204,255,255)">
      <rect x="246" width="203" height="53" y="562" clip-path="url(#clipPath2)" stroke="none"/>
    </g>
    <g text-rendering="geometricPrecision" stroke-miterlimit="1.45" shape-rendering="geometricPrecision" transform="matrix(1,0,0,1,-231,14)" stroke-linecap="butt">
      <rect fill="none" x="246" width="203" height="53" y="562" clip-path="url(#clipPath2)"/>
      <text x="262.3281" xml:space="preserve" y="585.6699" clip-path="url(#clipPath2)" font-family="sans-serif" stroke="none">Busca no repositório remoto</text>
      <text x="280.6094" xml:space="preserve" y="599.6387" clip-path="url(#clipPath2)" font-family="sans-serif" stroke="none">a versão mais recente</text>
    </g>
    <g fill="rgb(204,255,255)" text-rendering="geometricPrecision" shape-rendering="geometricPrecision" transform="matrix(1,0,0,1,-231,14)" stroke="rgb(204,255,255)">
      <rect x="246" width="203" height="53" y="645" clip-path="url(#clipPath2)" stroke="none"/>
    </g>
    <g text-rendering="geometricPrecision" stroke-miterlimit="1.45" shape-rendering="geometricPrecision" transform="matrix(1,0,0,1,-231,14)" stroke-linecap="butt">
      <rect fill="none" x="246" width="203" height="53" y="645" clip-path="url(#clipPath2)"/>
      <text x="263.2979" xml:space="preserve" y="661.6855" clip-path="url(#clipPath2)" font-family="sans-serif" stroke="none">Junta a versão mais recente</text>
      <text x="299.2305" xml:space="preserve" y="675.6543" clip-path="url(#clipPath2)" font-family="sans-serif" stroke="none">com a que está </text>
      <text x="289.1904" xml:space="preserve" y="689.623" clip-path="url(#clipPath2)" font-family="sans-serif" stroke="none">no seu computador</text>
    </g>
    <g fill="rgb(204,255,255)" text-rendering="geometricPrecision" shape-rendering="geometricPrecision" transform="matrix(1,0,0,1,-231,14)" stroke="rgb(204,255,255)">
      <rect x="246" width="203" height="53" y="728" clip-path="url(#clipPath2)" stroke="none"/>
    </g>
    <g text-rendering="geometricPrecision" stroke-miterlimit="1.45" shape-rendering="geometricPrecision" transform="matrix(1,0,0,1,-231,14)" stroke-linecap="butt">
      <rect fill="none" x="246" width="203" height="53" y="728" clip-path="url(#clipPath2)"/>
      <text x="260.5762" xml:space="preserve" y="744.6855" clip-path="url(#clipPath2)" font-family="sans-serif" stroke="none">Cria novas pastas e arquvos,</text>
      <text x="256.2812" xml:space="preserve" y="758.6543" clip-path="url(#clipPath2)" font-family="sans-serif" stroke="none">edita, modifica, compila, testa</text>
      <text x="287.2861" xml:space="preserve" y="772.623" clip-path="url(#clipPath2)" font-family="sans-serif" stroke="none">no computator local</text>
    </g>
    <g fill="rgb(204,255,255)" text-rendering="geometricPrecision" shape-rendering="geometricPrecision" transform="matrix(1,0,0,1,-231,14)" stroke="rgb(204,255,255)">
      <rect x="246" width="203" height="53" y="811" clip-path="url(#clipPath2)" stroke="none"/>
    </g>
    <g text-rendering="geometricPrecision" stroke-miterlimit="1.45" shape-rendering="geometricPrecision" transform="matrix(1,0,0,1,-231,14)" stroke-linecap="butt">
      <rect fill="none" x="246" width="203" height="53" y="811" clip-path="url(#clipPath2)"/>
      <text x="265.6328" xml:space="preserve" y="841.6543" clip-path="url(#clipPath2)" font-family="sans-serif" stroke="none">Atualiza repositório remoto</text>
    </g>
    <g fill="rgb(255,255,153)" text-rendering="geometricPrecision" shape-rendering="geometricPrecision" transform="matrix(1,0,0,1,-231,14)" stroke="rgb(255,255,153)">
      <rect x="542" width="203" height="53" y="562" clip-path="url(#clipPath2)" stroke="none"/>
    </g>
    <g text-rendering="geometricPrecision" stroke-miterlimit="1.45" shape-rendering="geometricPrecision" transform="matrix(1,0,0,1,-231,14)" stroke-linecap="butt">
      <rect fill="none" x="542" width="203" height="53" y="562" clip-path="url(#clipPath2)"/>
      <text x="594.7119" xml:space="preserve" y="592.6543" clip-path="url(#clipPath2)" font-family="sans-serif" stroke="none">usando git fetch</text>
    </g>
    <g fill="rgb(255,255,153)" text-rendering="geometricPrecision" shape-rendering="geometricPrecision" transform="matrix(1,0,0,1,-231,14)" stroke="rgb(255,255,153)">
      <rect x="542" width="203" height="53" y="645" clip-path="url(#clipPath2)" stroke="none"/>
    </g>
    <g text-rendering="geometricPrecision" stroke-miterlimit="1.45" shape-rendering="geometricPrecision" transform="matrix(1,0,0,1,-231,14)" stroke-linecap="butt">
      <rect fill="none" x="542" width="203" height="53" y="645" clip-path="url(#clipPath2)"/>
      <text x="587.7363" xml:space="preserve" y="668.6699" clip-path="url(#clipPath2)" font-family="sans-serif" stroke="none">usando git pull ou </text>
      <text x="614.2617" xml:space="preserve" y="682.6387" clip-path="url(#clipPath2)" font-family="sans-serif" stroke="none">git merge</text>
    </g>
    <g fill="rgb(255,255,153)" text-rendering="geometricPrecision" shape-rendering="geometricPrecision" transform="matrix(1,0,0,1,-231,14)" stroke="rgb(255,255,153)">
      <rect x="542" width="203" height="53" y="811" clip-path="url(#clipPath2)" stroke="none"/>
    </g>
    <g text-rendering="geometricPrecision" stroke-miterlimit="1.45" shape-rendering="geometricPrecision" transform="matrix(1,0,0,1,-231,14)" stroke-linecap="butt">
      <rect fill="none" x="542" width="203" height="53" y="811" clip-path="url(#clipPath2)"/>
      <text x="596.7686" xml:space="preserve" y="827.6855" clip-path="url(#clipPath2)" font-family="sans-serif" stroke="none">usando git add,</text>
      <text x="605.4873" xml:space="preserve" y="841.6543" clip-path="url(#clipPath2)" font-family="sans-serif" stroke="none">git commit e</text>
      <text x="617.3174" xml:space="preserve" y="855.623" clip-path="url(#clipPath2)" font-family="sans-serif" stroke="none">git push.</text>
    </g>
    <g fill="rgb(255,204,0)" text-rendering="geometricPrecision" shape-rendering="geometricPrecision" transform="matrix(1,0,0,1,-231,14)" stroke="rgb(255,204,0)">
      <rect x="332.5" width="311" height="53" y="479" clip-path="url(#clipPath2)" stroke="none"/>
      <rect x="332.5" y="479" clip-path="url(#clipPath2)" fill="yellow" width="1" height="53" stroke="none"/>
      <rect x="333.5" y="479" clip-path="url(#clipPath2)" fill="yellow" width="309" height="1" stroke="none"/>
      <rect x="333.5" y="531" clip-path="url(#clipPath2)" fill="rgb(178,142,0)" width="310" height="1" stroke="none"/>
      <rect x="642.5" y="479" clip-path="url(#clipPath2)" fill="rgb(178,142,0)" width="1" height="52" stroke="none"/>
    </g>
    <g font-size="16px" stroke-linecap="butt" transform="matrix(1,0,0,1,-231,14)" text-rendering="geometricPrecision" font-family="sans-serif" shape-rendering="geometricPrecision" stroke-miterlimit="1.45">
      <text x="363.3711" xml:space="preserve" y="501.7266" clip-path="url(#clipPath2)" stroke="none">"Baixar" a versão mais recente</text>
      <text x="405.1523" xml:space="preserve" y="520.3516" clip-path="url(#clipPath2)" stroke="none">e fazer modificações</text>
    </g>
    <g fill="rgb(204,255,255)" text-rendering="geometricPrecision" shape-rendering="geometricPrecision" transform="matrix(1,0,0,1,-231,14)" stroke="rgb(204,255,255)">
      <rect x="246" width="203" height="53" y="1024" clip-path="url(#clipPath2)" stroke="none"/>
    </g>
    <g text-rendering="geometricPrecision" stroke-miterlimit="1.45" shape-rendering="geometricPrecision" transform="matrix(1,0,0,1,-231,14)" stroke-linecap="butt">
      <rect fill="none" x="246" width="203" height="53" y="1024" clip-path="url(#clipPath2)"/>
      <text x="256.1846" xml:space="preserve" y="1054.6543" clip-path="url(#clipPath2)" font-family="sans-serif" stroke="none">Mudei arquivos e fui "comitar"</text>
    </g>
    <g fill="rgb(204,255,255)" text-rendering="geometricPrecision" shape-rendering="geometricPrecision" transform="matrix(1,0,0,1,-231,14)" stroke="rgb(204,255,255)">
      <rect x="246" width="203" height="53" y="1107" clip-path="url(#clipPath2)" stroke="none"/>
    </g>
    <g text-rendering="geometricPrecision" stroke-miterlimit="1.45" shape-rendering="geometricPrecision" transform="matrix(1,0,0,1,-231,14)" stroke-linecap="butt">
      <rect fill="none" x="246" width="203" height="53" y="1107" clip-path="url(#clipPath2)"/>
      <text x="321.6719" xml:space="preserve" y="1130.6699" clip-path="url(#clipPath2)" font-family="sans-serif" stroke="none">no push </text>
      <text x="303.9385" xml:space="preserve" y="1144.6387" clip-path="url(#clipPath2)" font-family="sans-serif" stroke="none">deu "negated"</text>
    </g>
    <g fill="rgb(204,255,255)" text-rendering="geometricPrecision" shape-rendering="geometricPrecision" transform="matrix(1,0,0,1,-231,14)" stroke="rgb(204,255,255)">
      <rect x="246" width="203" height="53" y="1190" clip-path="url(#clipPath2)" stroke="none"/>
    </g>
    <g text-rendering="geometricPrecision" stroke-miterlimit="1.45" shape-rendering="geometricPrecision" transform="matrix(1,0,0,1,-231,14)" stroke-linecap="butt">
      <rect fill="none" x="246" width="203" height="53" y="1190" clip-path="url(#clipPath2)"/>
      <text x="273.1064" xml:space="preserve" y="1213.6699" clip-path="url(#clipPath2)" font-family="sans-serif" stroke="none">faz um pull para mostrar</text>
      <text x="264.9443" xml:space="preserve" y="1227.6387" clip-path="url(#clipPath2)" font-family="sans-serif" stroke="none">os problemas nos arquivos.</text>
    </g>
    <g fill="rgb(204,255,255)" text-rendering="geometricPrecision" shape-rendering="geometricPrecision" transform="matrix(1,0,0,1,-231,14)" stroke="rgb(204,255,255)">
      <rect x="246" width="203" height="53" y="1273" clip-path="url(#clipPath2)" stroke="none"/>
    </g>
    <g text-rendering="geometricPrecision" stroke-miterlimit="1.45" shape-rendering="geometricPrecision" transform="matrix(1,0,0,1,-231,14)" stroke-linecap="butt">
      <rect fill="none" x="246" width="203" height="53" y="1273" clip-path="url(#clipPath2)"/>
      <text x="283.7207" xml:space="preserve" y="1296.6699" clip-path="url(#clipPath2)" font-family="sans-serif" stroke="none">Entra nos arquivos e </text>
      <text x="287.749" xml:space="preserve" y="1310.6387" clip-path="url(#clipPath2)" font-family="sans-serif" stroke="none">resolve os conflitos.</text>
    </g>
    <g fill="rgb(255,255,153)" text-rendering="geometricPrecision" shape-rendering="geometricPrecision" transform="matrix(1,0,0,1,-231,14)" stroke="rgb(255,255,153)">
      <rect x="542" width="203" height="53" y="1024" clip-path="url(#clipPath2)" stroke="none"/>
    </g>
    <g text-rendering="geometricPrecision" stroke-miterlimit="1.45" shape-rendering="geometricPrecision" transform="matrix(1,0,0,1,-231,14)" stroke-linecap="butt">
      <rect fill="none" x="542" width="203" height="53" y="1024" clip-path="url(#clipPath2)"/>
      <text x="592.8398" xml:space="preserve" y="1040.6855" clip-path="url(#clipPath2)" font-family="sans-serif" stroke="none">usando git add .;</text>
      <text x="593.4258" xml:space="preserve" y="1054.6543" clip-path="url(#clipPath2)" font-family="sans-serif" stroke="none">git commit -m...;</text>
      <text x="619.2246" xml:space="preserve" y="1068.623" clip-path="url(#clipPath2)" font-family="sans-serif" stroke="none">git push</text>
    </g>
    <g fill="rgb(255,255,153)" text-rendering="geometricPrecision" shape-rendering="geometricPrecision" transform="matrix(1,0,0,1,-231,14)" stroke="rgb(255,255,153)">
      <rect x="542" width="203" height="53" y="1190" clip-path="url(#clipPath2)" stroke="none"/>
    </g>
    <g text-rendering="geometricPrecision" stroke-miterlimit="1.45" shape-rendering="geometricPrecision" transform="matrix(1,0,0,1,-231,14)" stroke-linecap="butt">
      <rect fill="none" x="542" width="203" height="53" y="1190" clip-path="url(#clipPath2)"/>
      <text x="599.0244" xml:space="preserve" y="1220.6543" clip-path="url(#clipPath2)" font-family="sans-serif" stroke="none">usando git pull</text>
    </g>
    <g fill="rgb(255,255,153)" text-rendering="geometricPrecision" shape-rendering="geometricPrecision" transform="matrix(1,0,0,1,-231,14)" stroke="rgb(255,255,153)">
      <rect x="542" width="203" height="53" y="1273" clip-path="url(#clipPath2)" stroke="none"/>
    </g>
    <g text-rendering="geometricPrecision" stroke-miterlimit="1.45" shape-rendering="geometricPrecision" transform="matrix(1,0,0,1,-231,14)" stroke-linecap="butt">
      <rect fill="none" x="542" width="203" height="53" y="1273" clip-path="url(#clipPath2)"/>
      <text x="573.208" xml:space="preserve" y="1289.6855" clip-path="url(#clipPath2)" font-family="sans-serif" stroke="none">usando editor de texto,</text>
      <text x="574.5732" xml:space="preserve" y="1303.6543" clip-path="url(#clipPath2)" font-family="sans-serif" stroke="none">ajustando e apagando </text>
      <text x="610.793" xml:space="preserve" y="1317.623" clip-path="url(#clipPath2)" font-family="sans-serif" stroke="none">as marcas.</text>
    </g>
    <g fill="rgb(255,204,0)" text-rendering="geometricPrecision" shape-rendering="geometricPrecision" transform="matrix(1,0,0,1,-231,14)" stroke="rgb(255,204,0)">
      <rect x="281.75" width="412.5" height="53" y="941" clip-path="url(#clipPath2)" stroke="none"/>
      <rect x="281.75" y="941" clip-path="url(#clipPath2)" fill="yellow" width="1" height="53" stroke="none"/>
      <rect x="282.75" y="941" clip-path="url(#clipPath2)" fill="yellow" width="410.5" height="1" stroke="none"/>
      <rect x="282.75" y="993" clip-path="url(#clipPath2)" fill="rgb(178,142,0)" width="411.5" height="1" stroke="none"/>
      <rect x="693.25" y="941" clip-path="url(#clipPath2)" fill="rgb(178,142,0)" width="1" height="52" stroke="none"/>
    </g>
    <g font-size="16px" stroke-linecap="butt" transform="matrix(1,0,0,1,-231,14)" text-rendering="geometricPrecision" font-family="sans-serif" shape-rendering="geometricPrecision" stroke-miterlimit="1.45">
      <text x="382.8906" xml:space="preserve" y="963.7266" clip-path="url(#clipPath2)" stroke="none">Fui "comitar", deu confito </text>
      <text x="308.2617" xml:space="preserve" y="982.3516" clip-path="url(#clipPath2)" stroke="none">(porque outro "comitou" antes) - o que faço?</text>
    </g>
    <g fill="rgb(204,255,255)" text-rendering="geometricPrecision" shape-rendering="geometricPrecision" transform="matrix(1,0,0,1,-231,14)" stroke="rgb(204,255,255)">
      <rect x="246" width="203" height="53" y="1356" clip-path="url(#clipPath2)" stroke="none"/>
    </g>
    <g text-rendering="geometricPrecision" stroke-miterlimit="1.45" shape-rendering="geometricPrecision" transform="matrix(1,0,0,1,-231,14)" stroke-linecap="butt">
      <rect fill="none" x="246" width="203" height="53" y="1356" clip-path="url(#clipPath2)"/>
      <text x="265.6328" xml:space="preserve" y="1386.6543" clip-path="url(#clipPath2)" font-family="sans-serif" stroke="none">Atualiza repositório remoto</text>
    </g>
    <g fill="rgb(255,255,153)" text-rendering="geometricPrecision" shape-rendering="geometricPrecision" transform="matrix(1,0,0,1,-231,14)" stroke="rgb(255,255,153)">
      <rect x="542" width="203" height="53" y="1356" clip-path="url(#clipPath2)" stroke="none"/>
    </g>
    <g text-rendering="geometricPrecision" stroke-miterlimit="1.45" shape-rendering="geometricPrecision" transform="matrix(1,0,0,1,-231,14)" stroke-linecap="butt">
      <rect fill="none" x="542" width="203" height="53" y="1356" clip-path="url(#clipPath2)"/>
      <text x="596.7686" xml:space="preserve" y="1372.6855" clip-path="url(#clipPath2)" font-family="sans-serif" stroke="none">usando git add,</text>
      <text x="605.4873" xml:space="preserve" y="1386.6543" clip-path="url(#clipPath2)" font-family="sans-serif" stroke="none">git commit e</text>
      <text x="617.3174" xml:space="preserve" y="1400.623" clip-path="url(#clipPath2)" font-family="sans-serif" stroke="none">git push.</text>
      <path fill="none" d="M347.5 137 L347.5 159" clip-path="url(#clipPath2)"/>
      <path d="M347.5 167 L352.5 155 L347.5 158 L342.5 155 Z" clip-path="url(#clipPath2)" stroke="none"/>
      <path fill="none" d="M347.5 220 L347.5 242" clip-path="url(#clipPath2)"/>
      <path d="M347.5 250 L352.5 238 L347.5 241 L342.5 238 Z" clip-path="url(#clipPath2)" stroke="none"/>
      <path fill="none" d="M347.5 303 L347.5 325" clip-path="url(#clipPath2)"/>
      <path d="M347.5 333 L352.5 321 L347.5 324 L342.5 321 Z" clip-path="url(#clipPath2)" stroke="none"/>
      <path fill="none" d="M449 359.5 L509 359.5 L509 276.5 L457 276.5" clip-path="url(#clipPath2)"/>
      <path d="M449 276.5 L461 281.5 L458 276.5 L461 271.5 Z" clip-path="url(#clipPath2)" stroke="none"/>
      <path fill="none" d="M347.5 615 L347.5 637" clip-path="url(#clipPath2)"/>
      <path d="M347.5 645 L352.5 633 L347.5 636 L342.5 633 Z" clip-path="url(#clipPath2)" stroke="none"/>
      <path fill="none" d="M347.5 698 L347.5 720" clip-path="url(#clipPath2)"/>
      <path d="M347.5 728 L352.5 716 L347.5 719 L342.5 716 Z" clip-path="url(#clipPath2)" stroke="none"/>
      <path fill="none" d="M347.5 781 L347.5 803" clip-path="url(#clipPath2)"/>
      <path d="M347.5 811 L352.5 799 L347.5 802 L342.5 799 Z" clip-path="url(#clipPath2)" stroke="none"/>
      <path fill="none" d="M449 837.5 L509 837.5 L509 754.5 L457 754.5" clip-path="url(#clipPath2)"/>
      <path d="M449 754.5 L461 759.5 L458 754.5 L461 749.5 Z" clip-path="url(#clipPath2)" stroke="none"/>
      <path fill="none" d="M347.5 1077 L347.5 1099" clip-path="url(#clipPath2)"/>
      <path d="M347.5 1107 L352.5 1095 L347.5 1098 L342.5 1095 Z" clip-path="url(#clipPath2)" stroke="none"/>
      <path fill="none" d="M347.5 1160 L347.5 1182" clip-path="url(#clipPath2)"/>
      <path d="M347.5 1190 L352.5 1178 L347.5 1181 L342.5 1178 Z" clip-path="url(#clipPath2)" stroke="none"/>
      <path fill="none" d="M347.5 1243 L347.5 1265" clip-path="url(#clipPath2)"/>
      <path d="M347.5 1273 L352.5 1261 L347.5 1264 L342.5 1261 Z" clip-path="url(#clipPath2)" stroke="none"/>
      <path fill="none" d="M347.5 1326 L347.5 1348" clip-path="url(#clipPath2)"/>
      <path d="M347.5 1356 L352.5 1344 L347.5 1347 L342.5 1344 Z" clip-path="url(#clipPath2)" stroke="none"/>
    </g>
  </g>
</svg>
